<svg xmlns="http://www.w3.org/2000/svg" width="1280" height="720" viewBox="0 0 1280 720" role="img" aria-labelledby="title desc"><title id="title">算法学习笔记目录</title><desc id="desc">Pixel parchment title image for 算法学习笔记目录.</desc><defs><pattern id="p" width="18" height="18" patternUnits="userSpaceOnUse"><rect width="18" height="18" fill="#f1d590"/><rect x="0" y="0" width="4" height="4" fill="#e6c67e" opacity=".45"/><rect x="12" y="10" width="3" height="3" fill="#fff1b6" opacity=".45"/></pattern><style>.bgc{fill:url(#p)}.ink{fill:#211007}.edge{fill:none;stroke:#211007;stroke-width:8}.inner{fill:none;stroke:#8a5524;stroke-width:4}.gold{fill:#d9a74c}.teal{fill:#78bed1}.ruby{fill:#d47a67}.soft{fill:#fff0bf;opacity:.58}.t{fill:#211007;font-family:Arial,'Microsoft YaHei',sans-serif;font-size:42px;font-weight:800;text-anchor:middle}.s{fill:#5f3515;font-family:Arial,'Microsoft YaHei',sans-serif;font-size:22px;font-weight:700;text-anchor:middle}</style></defs><rect class="bgc" width="1280" height="720"/><rect class="edge" x="32" y="32" width="1216" height="656" rx="8"/><rect class="inner" x="56" y="56" width="1168" height="608" rx="4"/><rect class="soft" x="110" y="112" width="1060" height="496" rx="6"/><path d="M230 520 L360 420" stroke="#211007" stroke-width="10" fill="none"/><path d="M360 420 L495 475" stroke="#211007" stroke-width="10" fill="none"/><path d="M495 475 L615 330" stroke="#211007" stroke-width="10" fill="none"/><path d="M615 330 L760 385" stroke="#211007" stroke-width="10" fill="none"/><path d="M760 385 L915 250" stroke="#211007" stroke-width="10" fill="none"/><path d="M915 250 L1045 320" stroke="#211007" stroke-width="10" fill="none"/><rect class="teal" x="202" y="492" width="56" height="56"/><rect class="ink" x="222" y="512" width="16" height="16"/><rect class="gold" x="332" y="392" width="56" height="56"/><rect class="ink" x="352" y="412" width="16" height="16"/><rect class="teal" x="467" y="447" width="56" height="56"/><rect class="ink" x="487" y="467" width="16" height="16"/><rect class="gold" x="587" y="302" width="56" height="56"/><rect class="ink" x="607" y="322" width="16" height="16"/><rect class="teal" x="732" y="357" width="56" height="56"/><rect class="ink" x="752" y="377" width="16" height="16"/><rect class="gold" x="887" y="222" width="56" height="56"/><rect class="ink" x="907" y="242" width="16" height="16"/><rect class="teal" x="1017" y="292" width="56" height="56"/><rect class="ink" x="1037" y="312" width="16" height="16"/></svg>
