<svg xmlns="http://www.w3.org/2000/svg" width="1280" height="720" viewBox="0 0 1280 720" role="img" aria-labelledby="title desc"><title id="title">动态规划入门</title><desc id="desc">Pixel parchment title image for 动态规划入门.</desc><defs><pattern id="p" width="18" height="18" patternUnits="userSpaceOnUse"><rect width="18" height="18" fill="#f1d590"/><rect x="0" y="0" width="4" height="4" fill="#e6c67e" opacity=".45"/><rect x="12" y="10" width="3" height="3" fill="#fff1b6" opacity=".45"/></pattern><style>.bgc{fill:url(#p)}.ink{fill:#211007}.edge{fill:none;stroke:#211007;stroke-width:8}.inner{fill:none;stroke:#8a5524;stroke-width:4}.gold{fill:#d9a74c}.teal{fill:#78bed1}.ruby{fill:#d47a67}.soft{fill:#fff0bf;opacity:.58}.t{fill:#211007;font-family:Arial,'Microsoft YaHei',sans-serif;font-size:42px;font-weight:800;text-anchor:middle}.s{fill:#5f3515;font-family:Arial,'Microsoft YaHei',sans-serif;font-size:22px;font-weight:700;text-anchor:middle}</style></defs><rect class="bgc" width="1280" height="720"/><rect class="edge" x="32" y="32" width="1216" height="656" rx="8"/><rect class="inner" x="56" y="56" width="1168" height="608" rx="4"/><rect class="soft" x="110" y="112" width="1060" height="496" rx="6"/><rect class="teal" x="300" y="180" width="58" height="50" opacity="0.65"/><rect class="gold" x="378" y="180" width="58" height="50" opacity="0.8500000000000001"/><rect class="ruby" x="456" y="180" width="58" height="50" opacity="0.65"/><rect class="teal" x="534" y="180" width="58" height="50" opacity="0.8500000000000001"/><rect class="gold" x="612" y="180" width="58" height="50" opacity="0.65"/><rect class="ruby" x="690" y="180" width="58" height="50" opacity="0.8500000000000001"/><rect class="teal" x="768" y="180" width="58" height="50" opacity="0.65"/><rect class="gold" x="846" y="180" width="58" height="50" opacity="0.8500000000000001"/><rect class="gold" x="300" y="250" width="58" height="50" opacity="0.8500000000000001"/><rect class="ruby" x="378" y="250" width="58" height="50" opacity="0.65"/><rect class="teal" x="456" y="250" width="58" height="50" opacity="0.8500000000000001"/><rect class="gold" x="534" y="250" width="58" height="50" opacity="0.65"/><rect class="ruby" x="612" y="250" width="58" height="50" opacity="0.8500000000000001"/><rect class="teal" x="690" y="250" width="58" height="50" opacity="0.65"/><rect class="gold" x="768" y="250" width="58" height="50" opacity="0.8500000000000001"/><rect class="ruby" x="846" y="250" width="58" height="50" opacity="0.65"/><rect class="ruby" x="300" y="320" width="58" height="50" opacity="0.65"/><rect class="teal" x="378" y="320" width="58" height="50" opacity="0.8500000000000001"/><rect class="gold" x="456" y="320" width="58" height="50" opacity="0.65"/><rect class="ruby" x="534" y="320" width="58" height="50" opacity="0.8500000000000001"/><rect class="teal" x="612" y="320" width="58" height="50" opacity="0.65"/><rect class="gold" x="690" y="320" width="58" height="50" opacity="0.8500000000000001"/><rect class="ruby" x="768" y="320" width="58" height="50" opacity="0.65"/><rect class="teal" x="846" y="320" width="58" height="50" opacity="0.8500000000000001"/><rect class="teal" x="300" y="390" width="58" height="50" opacity="0.8500000000000001"/><rect class="gold" x="378" y="390" width="58" height="50" opacity="0.65"/><rect class="ruby" x="456" y="390" width="58" height="50" opacity="0.8500000000000001"/><rect class="teal" x="534" y="390" width="58" height="50" opacity="0.65"/><rect class="gold" x="612" y="390" width="58" height="50" opacity="0.8500000000000001"/><rect class="ruby" x="690" y="390" width="58" height="50" opacity="0.65"/><rect class="teal" x="768" y="390" width="58" height="50" opacity="0.8500000000000001"/><rect class="gold" x="846" y="390" width="58" height="50" opacity="0.65"/><rect class="gold" x="300" y="460" width="58" height="50" opacity="0.65"/><rect class="ruby" x="378" y="460" width="58" height="50" opacity="0.8500000000000001"/><rect class="teal" x="456" y="460" width="58" height="50" opacity="0.65"/><rect class="gold" x="534" y="460" width="58" height="50" opacity="0.8500000000000001"/><rect class="ruby" x="612" y="460" width="58" height="50" opacity="0.65"/><rect class="teal" x="690" y="460" width="58" height="50" opacity="0.8500000000000001"/><rect class="gold" x="768" y="460" width="58" height="50" opacity="0.65"/><rect class="ruby" x="846" y="460" width="58" height="50" opacity="0.8500000000000001"/><path d="M335 460 C480 375 580 330 705 210" stroke="#211007" stroke-width="8" fill="none"/><path d="M705 210 l-40 4 M705 210 l-14 38" stroke="#211007" stroke-width="8" fill="none"/></svg>
