<svg xmlns="http://www.w3.org/2000/svg" width="1280" height="720" viewBox="0 0 1280 720" role="img" aria-labelledby="title desc"><title id="title">二分查找与双指针</title><desc id="desc">Pixel parchment title image for 二分查找与双指针.</desc><defs><pattern id="p" width="18" height="18" patternUnits="userSpaceOnUse"><rect width="18" height="18" fill="#f1d590"/><rect x="0" y="0" width="4" height="4" fill="#e6c67e" opacity=".45"/><rect x="12" y="10" width="3" height="3" fill="#fff1b6" opacity=".45"/></pattern><style>.bgc{fill:url(#p)}.ink{fill:#211007}.edge{fill:none;stroke:#211007;stroke-width:8}.inner{fill:none;stroke:#8a5524;stroke-width:4}.gold{fill:#d9a74c}.teal{fill:#78bed1}.ruby{fill:#d47a67}.soft{fill:#fff0bf;opacity:.58}.t{fill:#211007;font-family:Arial,'Microsoft YaHei',sans-serif;font-size:42px;font-weight:800;text-anchor:middle}.s{fill:#5f3515;font-family:Arial,'Microsoft YaHei',sans-serif;font-size:22px;font-weight:700;text-anchor:middle}</style></defs><rect class="bgc" width="1280" height="720"/><rect class="edge" x="32" y="32" width="1216" height="656" rx="8"/><rect class="inner" x="56" y="56" width="1168" height="608" rx="4"/><rect class="soft" x="110" y="112" width="1060" height="496" rx="6"/><rect class="gold" x="190" y="340" width="56" height="80"/><rect class="ink" x="190" y="420" width="56" height="8"/><rect class="gold" x="262" y="340" width="56" height="80"/><rect class="ink" x="262" y="420" width="56" height="8"/><rect class="gold" x="334" y="340" width="56" height="80"/><rect class="ink" x="334" y="420" width="56" height="8"/><rect class="gold" x="406" y="340" width="56" height="80"/><rect class="ink" x="406" y="420" width="56" height="8"/><rect class="teal" x="478" y="340" width="56" height="80"/><rect class="ink" x="478" y="420" width="56" height="8"/><rect class="teal" x="550" y="340" width="56" height="80"/><rect class="ink" x="550" y="420" width="56" height="8"/><rect class="teal" x="622" y="340" width="56" height="80"/><rect class="ink" x="622" y="420" width="56" height="8"/><rect class="teal" x="694" y="340" width="56" height="80"/><rect class="ink" x="694" y="420" width="56" height="8"/><rect class="gold" x="766" y="340" width="56" height="80"/><rect class="ink" x="766" y="420" width="56" height="8"/><rect class="gold" x="838" y="340" width="56" height="80"/><rect class="ink" x="838" y="420" width="56" height="8"/><rect class="gold" x="910" y="340" width="56" height="80"/><rect class="ink" x="910" y="420" width="56" height="8"/><rect class="gold" x="982" y="340" width="56" height="80"/><rect class="ink" x="982" y="420" width="56" height="8"/><path d="M478 285 L700 285" stroke="#211007" stroke-width="10"/><path d="M478 285 l34 -28 M478 285 l34 28 M700 285 l-34 -28 M700 285 l-34 28" stroke="#211007" stroke-width="8" fill="none"/></svg>
