<svg xmlns="http://www.w3.org/2000/svg" width="1280" height="720" viewBox="0 0 1280 720" role="img" aria-labelledby="title desc"><title id="title">复杂度、数组与基础思维</title><desc id="desc">Pixel parchment title image for 复杂度、数组与基础思维.</desc><defs><pattern id="p" width="18" height="18" patternUnits="userSpaceOnUse"><rect width="18" height="18" fill="#f1d590"/><rect x="0" y="0" width="4" height="4" fill="#e6c67e" opacity=".45"/><rect x="12" y="10" width="3" height="3" fill="#fff1b6" opacity=".45"/></pattern><style>.bgc{fill:url(#p)}.ink{fill:#211007}.edge{fill:none;stroke:#211007;stroke-width:8}.inner{fill:none;stroke:#8a5524;stroke-width:4}.gold{fill:#d9a74c}.teal{fill:#78bed1}.ruby{fill:#d47a67}.soft{fill:#fff0bf;opacity:.58}.t{fill:#211007;font-family:Arial,'Microsoft YaHei',sans-serif;font-size:42px;font-weight:800;text-anchor:middle}.s{fill:#5f3515;font-family:Arial,'Microsoft YaHei',sans-serif;font-size:22px;font-weight:700;text-anchor:middle}</style></defs><rect class="bgc" width="1280" height="720"/><rect class="edge" x="32" y="32" width="1216" height="656" rx="8"/><rect class="inner" x="56" y="56" width="1168" height="608" rx="4"/><rect class="soft" x="110" y="112" width="1060" height="496" rx="6"/><path d="M180 560 H1080 M200 560 V150" stroke="#211007" stroke-width="8" fill="none"/><path d="M210 535 C420 500 690 420 1040 210" stroke="#78bed1" stroke-width="12" fill="none"/><path d="M210 545 C420 535 715 500 1040 450" stroke="#d9a74c" stroke-width="12" fill="none"/><path d="M210 555 C450 545 660 470 785 160" stroke="#d47a67" stroke-width="12" fill="none"/></svg>
