<svg xmlns="http://www.w3.org/2000/svg" width="1280" height="720" viewBox="0 0 1280 720" role="img" aria-labelledby="title desc"><title id="title">栈、队列与递归</title><desc id="desc">Pixel parchment title image for 栈、队列与递归.</desc><defs><pattern id="p" width="18" height="18" patternUnits="userSpaceOnUse"><rect width="18" height="18" fill="#f1d590"/><rect x="0" y="0" width="4" height="4" fill="#e6c67e" opacity=".45"/><rect x="12" y="10" width="3" height="3" fill="#fff1b6" opacity=".45"/></pattern><style>.bgc{fill:url(#p)}.ink{fill:#211007}.edge{fill:none;stroke:#211007;stroke-width:8}.inner{fill:none;stroke:#8a5524;stroke-width:4}.gold{fill:#d9a74c}.teal{fill:#78bed1}.ruby{fill:#d47a67}.soft{fill:#fff0bf;opacity:.58}.t{fill:#211007;font-family:Arial,'Microsoft YaHei',sans-serif;font-size:42px;font-weight:800;text-anchor:middle}.s{fill:#5f3515;font-family:Arial,'Microsoft YaHei',sans-serif;font-size:22px;font-weight:700;text-anchor:middle}</style></defs><rect class="bgc" width="1280" height="720"/><rect class="edge" x="32" y="32" width="1216" height="656" rx="8"/><rect class="inner" x="56" y="56" width="1168" height="608" rx="4"/><rect class="soft" x="110" y="112" width="1060" height="496" rx="6"/><rect class="teal" x="270" y="210" width="140" height="70"/><rect class="gold" x="270" y="290" width="140" height="70"/><rect class="ruby" x="270" y="370" width="140" height="70"/><path d="M520 440 H900" stroke="#211007" stroke-width="10"/><rect class="teal" x="590" y="355" width="70" height="70"/><rect class="gold" x="690" y="355" width="70" height="70"/><rect class="ruby" x="790" y="355" width="70" height="70"/><path d="M340 170 V120 M320 140 L340 120 L360 140" stroke="#211007" stroke-width="8" fill="none"/></svg>
