<svg xmlns="http://www.w3.org/2000/svg" width="1280" height="720" viewBox="0 0 1280 720" role="img" aria-labelledby="title desc"><title id="title">排序算法</title><desc id="desc">Pixel parchment title image for 排序算法.</desc><defs><pattern id="p" width="18" height="18" patternUnits="userSpaceOnUse"><rect width="18" height="18" fill="#f1d590"/><rect x="0" y="0" width="4" height="4" fill="#e6c67e" opacity=".45"/><rect x="12" y="10" width="3" height="3" fill="#fff1b6" opacity=".45"/></pattern><style>.bgc{fill:url(#p)}.ink{fill:#211007}.edge{fill:none;stroke:#211007;stroke-width:8}.inner{fill:none;stroke:#8a5524;stroke-width:4}.gold{fill:#d9a74c}.teal{fill:#78bed1}.ruby{fill:#d47a67}.soft{fill:#fff0bf;opacity:.58}.t{fill:#211007;font-family:Arial,'Microsoft YaHei',sans-serif;font-size:42px;font-weight:800;text-anchor:middle}.s{fill:#5f3515;font-family:Arial,'Microsoft YaHei',sans-serif;font-size:22px;font-weight:700;text-anchor:middle}</style></defs><rect class="bgc" width="1280" height="720"/><rect class="edge" x="32" y="32" width="1216" height="656" rx="8"/><rect class="inner" x="56" y="56" width="1168" height="608" rx="4"/><rect class="soft" x="110" y="112" width="1060" height="496" rx="6"/><rect class="teal" x="260" y="254" width="48" height="266"/><rect class="ink" x="260" y="520" width="48" height="8"/><rect class="teal" x="342" y="406" width="48" height="114"/><rect class="ink" x="342" y="520" width="48" height="8"/><rect class="teal" x="424" y="178" width="48" height="342"/><rect class="ink" x="424" y="520" width="48" height="8"/><rect class="teal" x="506" y="444" width="48" height="76"/><rect class="ink" x="506" y="520" width="48" height="8"/><rect class="gold" x="588" y="292" width="48" height="228"/><rect class="ink" x="588" y="520" width="48" height="8"/><rect class="gold" x="670" y="482" width="48" height="38"/><rect class="ink" x="670" y="520" width="48" height="8"/><rect class="gold" x="752" y="216" width="48" height="304"/><rect class="ink" x="752" y="520" width="48" height="8"/><rect class="gold" x="834" y="368" width="48" height="152"/><rect class="ink" x="834" y="520" width="48" height="8"/><path d="M260 210 C390 140 515 230 630 170 S875 150 980 230" fill="none" stroke="#211007" stroke-width="8" stroke-linecap="square"/><circle class="ruby" cx="632" cy="170" r="20"/><text class="t" x="640" y="620">SORTING</text></svg>
