<svg xmlns="http://www.w3.org/2000/svg" width="960" height="540" viewBox="0 0 960 540" role="img" aria-labelledby="title desc"><title id="title">Knapsack table</title><desc id="desc">A knapsack DP table records best values by item and capacity.</desc><defs><style>
  .bg{fill:#f2f2f2}.panel{fill:#fff;stroke:#ddd;stroke-width:2}.blue{fill:#a9d8e8}.blue2{fill:#7fc3dc}.gray{fill:#cfcfcf}.soft{fill:#e2e2e2}.dark{fill:#222}.muted{fill:#777}.line{stroke:#aaa;stroke-width:2;fill:none}.strong{stroke:#333;stroke-width:3;fill:none}.dash{stroke:#999;stroke-width:2;stroke-dasharray:7 7;fill:none}.arrow{stroke:#666;stroke-width:3;fill:none;marker-end:url(#arrow)}.red{fill:#ef8f8f}.green{fill:#9ed68a}.yellow{fill:#f2cf74}.cell{fill:#fff;stroke:#bbb;stroke-width:2}.cellB{fill:#a9d8e8;stroke:#8fbccc;stroke-width:2}.cellG{fill:#ddd;stroke:#bbb;stroke-width:2}.txt{fill:#222;font-family:Arial,'Microsoft YaHei',sans-serif;font-size:24px;font-weight:700;text-anchor:middle}.small{fill:#333;font-family:Arial,'Microsoft YaHei',sans-serif;font-size:18px;font-weight:700;text-anchor:middle}.cap{fill:#555;font-family:Arial,'Microsoft YaHei',sans-serif;font-size:20px;font-weight:700}.mini{fill:#777;font-family:Arial,'Microsoft YaHei',sans-serif;font-size:15px;font-weight:700;text-anchor:middle}.mono{fill:#222;font-family:Consolas,'Cascadia Mono',monospace;font-size:18px;font-weight:700;text-anchor:middle}</style><marker id="arrow" viewBox="0 0 10 10" refX="8.5" refY="5" markerWidth="8" markerHeight="8" orient="auto-start-reverse"><path d="M0 0L10 5L0 10z" fill="#666"/></marker></defs><rect class="bg" width="960" height="540"/><text class="cap" x="80" y="70">0-1 knapsack table</text><rect class="cell" x="190" y="130" width="72" height="56" rx="0"/><text class="small" x="226" y="165">0</text><rect class="cellG" x="262" y="130" width="72" height="56" rx="0"/><text class="small" x="298" y="165">0</text><rect class="cellG" x="334" y="130" width="72" height="56" rx="0"/><text class="small" x="370" y="165">0</text><rect class="cellG" x="406" y="130" width="72" height="56" rx="0"/><text class="small" x="442" y="165">0</text><rect class="cellG" x="478" y="130" width="72" height="56" rx="0"/><text class="small" x="514" y="165">0</text><rect class="cell" x="550" y="130" width="72" height="56" rx="0"/><text class="small" x="586" y="165">0</text><rect class="cellG" x="622" y="130" width="72" height="56" rx="0"/><text class="small" x="658" y="165">0</text><rect class="cell" x="190" y="186" width="72" height="56" rx="0"/><text class="small" x="226" y="221">0</text><rect class="cell" x="262" y="186" width="72" height="56" rx="0"/><text class="small" x="298" y="221">1</text><rect class="cellG" x="334" y="186" width="72" height="56" rx="0"/><text class="small" x="370" y="221">2</text><rect class="cellG" x="406" y="186" width="72" height="56" rx="0"/><text class="small" x="442" y="221">3</text><rect class="cellG" x="478" y="186" width="72" height="56" rx="0"/><text class="small" x="514" y="221">4</text><rect class="cell" x="550" y="186" width="72" height="56" rx="0"/><text class="small" x="586" y="221">5</text><rect class="cell" x="622" y="186" width="72" height="56" rx="0"/><text class="small" x="658" y="221">6</text><rect class="cell" x="190" y="242" width="72" height="56" rx="0"/><text class="small" x="226" y="277">0</text><rect class="cell" x="262" y="242" width="72" height="56" rx="0"/><text class="small" x="298" y="277">2</text><rect class="cell" x="334" y="242" width="72" height="56" rx="0"/><text class="small" x="370" y="277">4</text><rect class="cellG" x="406" y="242" width="72" height="56" rx="0"/><text class="small" x="442" y="277">6</text><rect class="cellG" x="478" y="242" width="72" height="56" rx="0"/><text class="small" x="514" y="277">8</text><rect class="cell" x="550" y="242" width="72" height="56" rx="0"/><text class="small" x="586" y="277">1</text><rect class="cell" x="622" y="242" width="72" height="56" rx="0"/><text class="small" x="658" y="277">3</text><rect class="cell" x="190" y="298" width="72" height="56" rx="0"/><text class="small" x="226" y="333">0</text><rect class="cell" x="262" y="298" width="72" height="56" rx="0"/><text class="small" x="298" y="333">3</text><rect class="cell" x="334" y="298" width="72" height="56" rx="0"/><text class="small" x="370" y="333">6</text><rect class="cell" x="406" y="298" width="72" height="56" rx="0"/><text class="small" x="442" y="333">0</text><rect class="cellG" x="478" y="298" width="72" height="56" rx="0"/><text class="small" x="514" y="333">3</text><rect class="cellB" x="550" y="298" width="72" height="56" rx="0"/><text class="small" x="586" y="333">6</text><rect class="cell" x="622" y="298" width="72" height="56" rx="0"/><text class="small" x="658" y="333">0</text><rect class="cell" x="190" y="354" width="72" height="56" rx="0"/><text class="small" x="226" y="389">0</text><rect class="cell" x="262" y="354" width="72" height="56" rx="0"/><text class="small" x="298" y="389">4</text><rect class="cell" x="334" y="354" width="72" height="56" rx="0"/><text class="small" x="370" y="389">8</text><rect class="cell" x="406" y="354" width="72" height="56" rx="0"/><text class="small" x="442" y="389">3</text><rect class="cell" x="478" y="354" width="72" height="56" rx="0"/><text class="small" x="514" y="389">7</text><rect class="cell" x="550" y="354" width="72" height="56" rx="0"/><text class="small" x="586" y="389">2</text><rect class="cell" x="622" y="354" width="72" height="56" rx="0"/><text class="small" x="658" y="389">6</text><text class="small" x="470" y="445">rows: items, columns: capacity</text></svg>
