<svg xmlns="http://www.w3.org/2000/svg" width="1600" height="1000" viewBox="0 0 1600 1000"><defs><linearGradient id="bg" x1="0" y1="0" x2="1" y2="1"><stop stop-color="#f8fcff"/><stop offset="1" stop-color="#ecf7ff"/></linearGradient><linearGradient id="sea" x1="0" y1="0" x2="1" y2="1"><stop stop-color="#0ea5e9"/><stop offset=".55" stop-color="#0f766e"/><stop offset="1" stop-color="#075985"/></linearGradient><linearGradient id="deep" x1="0" y1="0" x2="0" y2="1"><stop stop-color="#082f49"/><stop offset="1" stop-color="#0f172a"/></linearGradient><pattern id="grid" width="42" height="42" patternUnits="userSpaceOnUse"><path d="M42 0H0V42" fill="none" stroke="#cfe8ff" stroke-width="1"/></pattern><pattern id="mesh" width="66" height="34" patternUnits="userSpaceOnUse"><path d="M0 28C18 4 48 4 66 28M0 17H66M16 0V34M49 0V34" fill="none" stroke="#8be9ff" opacity=".72" stroke-width="1.4"/></pattern><filter id="shadow"><feDropShadow dx="0" dy="10" stdDeviation="12" flood-color="#0f2942" flood-opacity=".16"/></filter><marker id="arr" markerWidth="12" markerHeight="12" refX="10" refY="6" orient="auto"><path d="M2 2l8 4-8 4z" fill="#5f7ea3"/></marker></defs><rect width="1600" height="1000" fill="url(#bg)"/><rect width="1600" height="1000" fill="url(#grid)" opacity=".4"/><text x="70" y="72" font-size="34" font-weight="800" fill="#0f2942">UE RDG Pass Sequence for FFT Ocean</text><text x="72" y="108" font-size="20" fill="#60758c">参考 FRDGBuilder、RegisterExternalTexture、AddPass、QueueTextureExtraction 的资源生命周期</text><g filter="url(#shadow)"><rect x="610" y="410" width="380" height="160" rx="24" fill="#0f2942" stroke="#38bdf8" stroke-width="3"/><foreignObject x="624" y="443.8" width="352" height="90"><div xmlns="http://www.w3.org/1999/xhtml" style="font-family:'Microsoft YaHei','Segoe UI',Arial,sans-serif;text-align:middle;font-size:24px;font-weight:700;line-height:1.22;color:#e0f2fe">FFT Ocean RDG</div></foreignObject><foreignObject x="624" y="491.79999999999995" width="352" height="90"><div xmlns="http://www.w3.org/1999/xhtml" style="font-family:'Microsoft YaHei','Segoe UI',Arial,sans-serif;text-align:center;font-size:17px;font-weight:500;line-height:1.22;color:#a7f3d0">Frame Graph</div></foreignObject></g><path d="M610 490C500 490 500 262 390 262" fill="none" stroke="#2563eb" stroke-width="3"  /><g filter="url(#shadow)"><rect x="90" y="190" width="300" height="145" rx="24" fill="#fff" stroke="#2563eb" stroke-width="3"/><foreignObject x="104" y="217.35" width="272" height="90"><div xmlns="http://www.w3.org/1999/xhtml" style="font-family:'Microsoft YaHei','Segoe UI',Arial,sans-serif;text-align:middle;font-size:24px;font-weight:700;line-height:1.22;color:#0f2942">资源导入</div></foreignObject><foreignObject x="104" y="260.85" width="272" height="90"><div xmlns="http://www.w3.org/1999/xhtml" style="font-family:'Microsoft YaHei','Segoe UI',Arial,sans-serif;text-align:center;font-size:17px;font-weight:500;line-height:1.22;color:#60758c">External RT -&gt; RDG</div></foreignObject></g><rect x="112" y="346" width="256" height="33" rx="16.5" fill="#fff" stroke="#2563eb" stroke-width="2"/><foreignObject x="121" y="330.5" width="238" height="90"><div xmlns="http://www.w3.org/1999/xhtml" style="font-family:'Microsoft YaHei','Segoe UI',Arial,sans-serif;text-align:middle;font-size:16px;font-weight:700;line-height:1.22;color:#2563eb">RegisterExternalTexture</div></foreignObject><rect x="112" y="388" width="256" height="33" rx="16.5" fill="#fff" stroke="#2563eb" stroke-width="2"/><foreignObject x="121" y="372.5" width="238" height="90"><div xmlns="http://www.w3.org/1999/xhtml" style="font-family:'Microsoft YaHei','Segoe UI',Arial,sans-serif;text-align:middle;font-size:16px;font-weight:700;line-height:1.22;color:#2563eb">FRDGTextureRef</div></foreignObject><rect x="112" y="430" width="256" height="33" rx="16.5" fill="#fff" stroke="#2563eb" stroke-width="2"/><foreignObject x="121" y="414.5" width="238" height="90"><div xmlns="http://www.w3.org/1999/xhtml" style="font-family:'Microsoft YaHei','Segoe UI',Arial,sans-serif;text-align:middle;font-size:16px;font-weight:700;line-height:1.22;color:#2563eb">SRV / UAV</div></foreignObject><path d="M990 490C1055 490 1055 262 1120 262" fill="none" stroke="#0d9488" stroke-width="3"  /><g filter="url(#shadow)"><rect x="1120" y="190" width="300" height="145" rx="24" fill="#fff" stroke="#0d9488" stroke-width="3"/><foreignObject x="1134" y="217.35" width="272" height="90"><div xmlns="http://www.w3.org/1999/xhtml" style="font-family:'Microsoft YaHei','Segoe UI',Arial,sans-serif;text-align:middle;font-size:24px;font-weight:700;line-height:1.22;color:#0f2942">频谱更新</div></foreignObject><foreignObject x="1134" y="260.85" width="272" height="90"><div xmlns="http://www.w3.org/1999/xhtml" style="font-family:'Microsoft YaHei','Segoe UI',Arial,sans-serif;text-align:center;font-size:17px;font-weight:500;line-height:1.22;color:#60758c">UpdateSpectrumCS</div></foreignObject></g><rect x="1142" y="346" width="256" height="33" rx="16.5" fill="#fff" stroke="#0d9488" stroke-width="2"/><foreignObject x="1151" y="330.5" width="238" height="90"><div xmlns="http://www.w3.org/1999/xhtml" style="font-family:'Microsoft YaHei','Segoe UI',Arial,sans-serif;text-align:middle;font-size:16px;font-weight:700;line-height:1.22;color:#0d9488">H0 / H0Conj</div></foreignObject><rect x="1142" y="388" width="256" height="33" rx="16.5" fill="#fff" stroke="#0d9488" stroke-width="2"/><foreignObject x="1151" y="372.5" width="238" height="90"><div xmlns="http://www.w3.org/1999/xhtml" style="font-family:'Microsoft YaHei','Segoe UI',Arial,sans-serif;text-align:middle;font-size:16px;font-weight:700;line-height:1.22;color:#0d9488">Omega(k)</div></foreignObject><rect x="1142" y="430" width="256" height="33" rx="16.5" fill="#fff" stroke="#0d9488" stroke-width="2"/><foreignObject x="1151" y="414.5" width="238" height="90"><div xmlns="http://www.w3.org/1999/xhtml" style="font-family:'Microsoft YaHei','Segoe UI',Arial,sans-serif;text-align:middle;font-size:16px;font-weight:700;line-height:1.22;color:#0d9488">h(k,t)</div></foreignObject><path d="M610 490C500 490 500 492 390 492" fill="none" stroke="#7c3aed" stroke-width="3"  /><g filter="url(#shadow)"><rect x="90" y="420" width="300" height="145" rx="24" fill="#fff" stroke="#7c3aed" stroke-width="3"/><foreignObject x="104" y="447.35" width="272" height="90"><div xmlns="http://www.w3.org/1999/xhtml" style="font-family:'Microsoft YaHei','Segoe UI',Arial,sans-serif;text-align:middle;font-size:24px;font-weight:700;line-height:1.22;color:#0f2942">IFFT 计算</div></foreignObject><foreignObject x="104" y="490.85" width="272" height="90"><div xmlns="http://www.w3.org/1999/xhtml" style="font-family:'Microsoft YaHei','Segoe UI',Arial,sans-serif;text-align:center;font-size:17px;font-weight:500;line-height:1.22;color:#60758c">Ping-Pong Passes</div></foreignObject></g><rect x="112" y="576" width="256" height="33" rx="16.5" fill="#fff" stroke="#7c3aed" stroke-width="2"/><foreignObject x="121" y="560.5" width="238" height="90"><div xmlns="http://www.w3.org/1999/xhtml" style="font-family:'Microsoft YaHei','Segoe UI',Arial,sans-serif;text-align:middle;font-size:16px;font-weight:700;line-height:1.22;color:#7c3aed">Butterfly Texture</div></foreignObject><rect x="112" y="618" width="256" height="33" rx="16.5" fill="#fff" stroke="#7c3aed" stroke-width="2"/><foreignObject x="121" y="602.5" width="238" height="90"><div xmlns="http://www.w3.org/1999/xhtml" style="font-family:'Microsoft YaHei','Segoe UI',Arial,sans-serif;text-align:middle;font-size:16px;font-weight:700;line-height:1.22;color:#7c3aed">Horizontal FFT</div></foreignObject><rect x="112" y="660" width="256" height="33" rx="16.5" fill="#fff" stroke="#7c3aed" stroke-width="2"/><foreignObject x="121" y="644.5" width="238" height="90"><div xmlns="http://www.w3.org/1999/xhtml" style="font-family:'Microsoft YaHei','Segoe UI',Arial,sans-serif;text-align:middle;font-size:16px;font-weight:700;line-height:1.22;color:#7c3aed">Vertical FFT</div></foreignObject><path d="M990 490C1055 490 1055 492 1120 492" fill="none" stroke="#f97316" stroke-width="3"  /><g filter="url(#shadow)"><rect x="1120" y="420" width="300" height="145" rx="24" fill="#fff" stroke="#f97316" stroke-width="3"/><foreignObject x="1134" y="447.35" width="272" height="90"><div xmlns="http://www.w3.org/1999/xhtml" style="font-family:'Microsoft YaHei','Segoe UI',Arial,sans-serif;text-align:middle;font-size:24px;font-weight:700;line-height:1.22;color:#0f2942">后处理输出</div></foreignObject><foreignObject x="1134" y="490.85" width="272" height="90"><div xmlns="http://www.w3.org/1999/xhtml" style="font-family:'Microsoft YaHei','Segoe UI',Arial,sans-serif;text-align:center;font-size:17px;font-weight:500;line-height:1.22;color:#60758c">Ocean RTs</div></foreignObject></g><rect x="1142" y="576" width="256" height="33" rx="16.5" fill="#fff" stroke="#f97316" stroke-width="2"/><foreignObject x="1151" y="560.5" width="238" height="90"><div xmlns="http://www.w3.org/1999/xhtml" style="font-family:'Microsoft YaHei','Segoe UI',Arial,sans-serif;text-align:middle;font-size:16px;font-weight:700;line-height:1.22;color:#f97316">Displacement XYZ</div></foreignObject><rect x="1142" y="618" width="256" height="33" rx="16.5" fill="#fff" stroke="#f97316" stroke-width="2"/><foreignObject x="1151" y="602.5" width="238" height="90"><div xmlns="http://www.w3.org/1999/xhtml" style="font-family:'Microsoft YaHei','Segoe UI',Arial,sans-serif;text-align:middle;font-size:16px;font-weight:700;line-height:1.22;color:#f97316">Normal / Slope</div></foreignObject><rect x="1142" y="660" width="256" height="33" rx="16.5" fill="#fff" stroke="#f97316" stroke-width="2"/><foreignObject x="1151" y="644.5" width="238" height="90"><div xmlns="http://www.w3.org/1999/xhtml" style="font-family:'Microsoft YaHei','Segoe UI',Arial,sans-serif;text-align:middle;font-size:16px;font-weight:700;line-height:1.22;color:#f97316">Jacobian / Foam</div></foreignObject><path d="M610 490C500 490 500 722 390 722" fill="none" stroke="#0891b2" stroke-width="3"  /><g filter="url(#shadow)"><rect x="90" y="650" width="300" height="145" rx="24" fill="#fff" stroke="#0891b2" stroke-width="3"/><foreignObject x="104" y="677.35" width="272" height="90"><div xmlns="http://www.w3.org/1999/xhtml" style="font-family:'Microsoft YaHei','Segoe UI',Arial,sans-serif;text-align:middle;font-size:24px;font-weight:700;line-height:1.22;color:#0f2942">渲染接入</div></foreignObject><foreignObject x="104" y="720.85" width="272" height="90"><div xmlns="http://www.w3.org/1999/xhtml" style="font-family:'Microsoft YaHei','Segoe UI',Arial,sans-serif;text-align:center;font-size:17px;font-weight:500;line-height:1.22;color:#60758c">Material / Water Pass</div></foreignObject></g><rect x="112" y="806" width="256" height="33" rx="16.5" fill="#fff" stroke="#0891b2" stroke-width="2"/><foreignObject x="121" y="790.5" width="238" height="90"><div xmlns="http://www.w3.org/1999/xhtml" style="font-family:'Microsoft YaHei','Segoe UI',Arial,sans-serif;text-align:middle;font-size:16px;font-weight:700;line-height:1.22;color:#0891b2">WPO</div></foreignObject><rect x="112" y="848" width="256" height="33" rx="16.5" fill="#fff" stroke="#0891b2" stroke-width="2"/><foreignObject x="121" y="832.5" width="238" height="90"><div xmlns="http://www.w3.org/1999/xhtml" style="font-family:'Microsoft YaHei','Segoe UI',Arial,sans-serif;text-align:middle;font-size:16px;font-weight:700;line-height:1.22;color:#0891b2">SingleLayerWater</div></foreignObject><rect x="112" y="890" width="256" height="33" rx="16.5" fill="#fff" stroke="#0891b2" stroke-width="2"/><foreignObject x="121" y="874.5" width="238" height="90"><div xmlns="http://www.w3.org/1999/xhtml" style="font-family:'Microsoft YaHei','Segoe UI',Arial,sans-serif;text-align:middle;font-size:16px;font-weight:700;line-height:1.22;color:#0891b2">SceneColor / Depth</div></foreignObject><path d="M990 490C1055 490 1055 722 1120 722" fill="none" stroke="#16a34a" stroke-width="3"  /><g filter="url(#shadow)"><rect x="1120" y="650" width="300" height="145" rx="24" fill="#fff" stroke="#16a34a" stroke-width="3"/><foreignObject x="1134" y="677.35" width="272" height="90"><div xmlns="http://www.w3.org/1999/xhtml" style="font-family:'Microsoft YaHei','Segoe UI',Arial,sans-serif;text-align:middle;font-size:24px;font-weight:700;line-height:1.22;color:#0f2942">调试验证</div></foreignObject><foreignObject x="1134" y="720.85" width="272" height="90"><div xmlns="http://www.w3.org/1999/xhtml" style="font-family:'Microsoft YaHei','Segoe UI',Arial,sans-serif;text-align:center;font-size:17px;font-weight:500;line-height:1.22;color:#60758c">GPU Debug</div></foreignObject></g><rect x="1142" y="806" width="256" height="33" rx="16.5" fill="#fff" stroke="#16a34a" stroke-width="2"/><foreignObject x="1151" y="790.5" width="238" height="90"><div xmlns="http://www.w3.org/1999/xhtml" style="font-family:'Microsoft YaHei','Segoe UI',Arial,sans-serif;text-align:middle;font-size:16px;font-weight:700;line-height:1.22;color:#16a34a">RDG_EVENT_NAME</div></foreignObject><rect x="1142" y="848" width="256" height="33" rx="16.5" fill="#fff" stroke="#16a34a" stroke-width="2"/><foreignObject x="1151" y="832.5" width="238" height="90"><div xmlns="http://www.w3.org/1999/xhtml" style="font-family:'Microsoft YaHei','Segoe UI',Arial,sans-serif;text-align:middle;font-size:16px;font-weight:700;line-height:1.22;color:#16a34a">stat gpu</div></foreignObject><rect x="1142" y="890" width="256" height="33" rx="16.5" fill="#fff" stroke="#16a34a" stroke-width="2"/><foreignObject x="1151" y="874.5" width="238" height="90"><div xmlns="http://www.w3.org/1999/xhtml" style="font-family:'Microsoft YaHei','Segoe UI',Arial,sans-serif;text-align:middle;font-size:16px;font-weight:700;line-height:1.22;color:#16a34a">RenderDoc</div></foreignObject><text x="1530" y="955" text-anchor="end" font-size="17" fill="#6b7f95">XMind style candidate</text></svg>