<svg xmlns="http://www.w3.org/2000/svg" width="32" height="32" viewBox="0 0 32 32" shape-rendering="crispEdges">
  <path fill="#120c08" d="M6 7h3V5h4v3h6V5h4v2h3v5h2v11h-2v3H6v-3H4V12h2z"/>
  <path fill="#28170f" d="M8 10h16v4h2v8h-2v2H8v-2H6v-8h2z"/>
  <path fill="#5c3420" d="M9 8h2V7h1v3H9zM20 7h1v1h2v2h-3z"/>
  <path fill="#f2d06b" d="M10 16h4v2h-4zM18 16h4v2h-4z"/>
  <path fill="#120c08" d="M12 16h2v2h-2zM20 16h2v2h-2zM15 20h2v2h-2zM11 23h10v1H11z"/>
  <path fill="#fff0b3" d="M10 16h1v1h-1zM18 16h1v1h-1z"/>
  <path fill="#8d4c38" d="M6 14H4v1h2zM6 18H3v1h3zM26 14h2v1h-2zM26 18h3v1h-3z"/>
</svg>
